<?xml version="1.0" encoding="UTF-8"?>
<svg version="1.1" xmlns="http://www.w3.org/2000/svg" width="1024" height="1024">
<path d="M0 0 C337.92 0 675.84 0 1024 0 C1024 337.92 1024 675.84 1024 1024 C686.08 1024 348.16 1024 0 1024 C0 686.08 0 348.16 0 0 Z " fill="#FDFDFD" transform="translate(0,0)"/>
<path d="M0 0 C8.10034916 4.74750899 10.84569489 9.51560853 15.24609375 18.31640625 C15.24609375 30.52640625 15.24609375 42.73640625 15.24609375 55.31640625 C80.25609375 55.31640625 145.26609375 55.31640625 212.24609375 55.31640625 C212.57609375 67.85640625 212.90609375 80.39640625 213.24609375 93.31640625 C217.19603724 106.15372259 220.42058657 115.20945532 232.078125 122.171875 C242.82039844 127.84302116 254.52954221 128.88772127 266.453125 126.73828125 C273.76128307 124.43814566 279.06192593 119.86042954 284.24609375 114.31640625 C284.24609375 113.98640625 284.24609375 113.65640625 284.24609375 113.31640625 C283.78203125 113.60515625 283.31796875 113.89390625 282.83984375 114.19140625 C274.77454797 118.52499801 265.58792845 118.41421999 256.71875 116.87890625 C248.57378259 114.29832252 243.04998302 107.83964237 239.15625 100.52734375 C237.22462259 95.83506429 237.11625198 91.29872506 237.10083008 86.26635742 C237.09579216 85.23115211 237.09579216 85.23115211 237.09065247 84.17503357 C237.08118698 81.90312885 237.07920148 79.63129819 237.078125 77.359375 C237.07490903 75.77142812 237.0715447 74.18348154 237.06803894 72.59553528 C237.06205844 69.26933099 237.0601979 65.94315264 237.06079102 62.61694336 C237.0608925 58.37032621 237.04724964 54.12387677 237.03001881 49.87729931 C237.01885864 46.59747057 237.01687305 43.31768185 237.01740074 40.03783607 C237.01622632 38.47306046 237.01183496 36.90828362 237.00406837 35.34352684 C236.90694463 13.75223085 236.90694463 13.75223085 245.0390625 5.49609375 C251.54769312 -0.521557 257.70022508 -3.26270421 266.55859375 -3.18359375 C267.3047998 -3.17787354 268.05100586 -3.17215332 268.81982422 -3.16625977 C277.16920773 -2.89724622 282.94896238 0.00370802 289.12109375 5.56640625 C297.555011 15.18037777 296.73977628 25.25340168 296.49609375 37.37890625 C296.47599996 39.12042219 296.45775428 40.86196049 296.44140625 42.60351562 C296.39763369 46.84170402 296.32876623 51.07880546 296.24609375 55.31640625 C296.92910553 55.30974442 297.61211731 55.30308258 298.31582642 55.29621887 C304.81595594 55.23560586 311.31600431 55.19018062 317.81635475 55.16096973 C321.15671217 55.14544604 324.49665496 55.12278311 327.83691406 55.09008789 C331.69472274 55.05329877 335.55220287 55.03658738 339.41015625 55.0234375 C340.58470367 55.00795364 341.7592511 54.99246979 342.96939087 54.97651672 C363.59768206 54.97241698 380.2508398 62.11742016 395.43359375 75.94140625 C402.89170803 83.73713064 407.83163852 93.88346701 410.24609375 104.31640625 C410.5128112 105.42537939 410.5128112 105.42537939 410.78491688 106.55675602 C412.23695356 113.09780193 412.5247778 119.32299395 412.48901367 126.00756836 C412.49088369 127.15509992 412.49275372 128.30263147 412.4946804 129.48493671 C412.49770411 132.67453663 412.49166826 135.8639688 412.48168683 139.05354977 C412.47284232 142.57490304 412.47557555 146.09625305 412.47654724 149.61761475 C412.47647093 156.66904011 412.4648301 163.7204044 412.44917887 170.77181065 C412.43638977 176.60321287 412.42758066 182.43460897 412.42132568 188.26602173 C412.39475902 212.46626389 412.33850134 236.66638123 412.27354002 260.86654776 C412.25078463 269.39760081 412.22990966 277.92865748 412.20965576 286.4597168 C412.13758911 316.66772054 412.05565981 346.87566949 411.95374584 377.0835886 C411.95143098 377.77017032 411.94911611 378.45675203 411.94673109 379.16413925 C411.94441621 379.85053823 411.94210132 380.53693721 411.93971628 381.24413615 C411.93740224 381.9303079 411.93508819 382.61647964 411.93270402 383.32344446 C411.92802991 384.70828633 411.9233476 386.09312816 411.91865707 387.47796997 C411.88587827 397.17738165 411.85691109 406.87679794 411.83064865 416.57622935 C411.79642798 429.21364843 411.75540288 441.85101527 411.70360464 454.48837769 C411.6784163 460.67147686 411.65638915 466.85454533 411.64269829 473.03768158 C411.62990095 478.75778316 411.60790036 484.4777744 411.57869875 490.19781506 C411.56966902 492.27725449 411.56395457 494.3567115 411.56188333 496.43616951 C411.55854365 499.272609 411.5430306 502.10873839 411.52456665 504.94511414 C411.52650133 505.75437324 411.528436 506.56363234 411.5304293 507.39741445 C411.37089199 523.84331462 405.07648736 537.71815232 394 549.7578125 C380.92065926 562.45057174 363.38568499 567.49359862 345.45851803 567.44783401 C344.32317219 567.45091297 344.32317219 567.45091297 343.16489008 567.45405412 C340.6321219 567.45970235 338.09940848 567.45826957 335.56663513 567.45684814 C333.73090985 567.45943303 331.89518512 567.46244654 330.05946118 567.46585155 C325.01720048 567.47391032 319.97495402 567.47571049 314.93268764 567.47644901 C309.49349707 567.47830153 304.05431387 567.48584987 298.61512756 567.49258423 C286.72242037 567.50616018 274.82971655 567.51219114 262.9370029 567.51659489 C255.50930698 567.5193586 248.08161236 567.5235962 240.65391731 567.52809906 C220.08361486 567.54029085 199.51331345 567.55059029 178.94300747 567.55397415 C177.62672057 567.55419372 176.31043366 567.55441328 174.95425928 567.5546395 C173.63484561 567.55485778 172.31543194 567.55507606 170.95603603 567.55530095 C168.28245826 567.5557435 165.6088805 567.55619061 162.93530273 567.55664062 C162.27241372 567.55675002 161.60952471 567.55685941 160.92654816 567.55697211 C139.43936385 567.56060157 117.9522133 567.57651826 96.46504192 567.59983099 C73.73247251 567.62444971 50.99992154 567.63814123 28.26733834 567.63934207 C15.88145319 567.64025823 3.49561226 567.64599573 -8.8902607 567.66416168 C-19.43792546 567.67957722 -29.98553234 567.68467454 -40.53320623 567.67642358 C-45.91211566 567.67252223 -51.29090859 567.67342158 -56.66980362 567.68748093 C-61.60046831 567.70025052 -66.53092932 567.69899549 -71.46159386 567.68689021 C-73.23887828 567.68493851 -75.01617728 567.68798711 -76.79344124 567.69673458 C-100.20942065 567.80462547 -121.67826493 561.81600543 -139.08203125 545.2421875 C-147.3427077 536.19650524 -153.10809242 526.02138748 -156.75390625 514.31640625 C-156.9859375 513.5790625 -157.21796875 512.84171875 -157.45703125 512.08203125 C-160.30649516 501.90537444 -159.90127398 491.1808945 -159.89434814 480.71260071 C-159.89693586 479.13898607 -159.89995014 477.56537209 -159.90335155 475.991759 C-159.9113768 471.68790718 -159.9132086 467.38407208 -159.91394901 463.08021367 C-159.91580735 458.43042949 -159.92335847 453.78065384 -159.93008423 449.13087463 C-159.94363521 438.97375997 -159.94968693 428.81664926 -159.95409489 418.65952706 C-159.95686222 412.31241221 -159.96110041 405.96529887 -159.96559906 399.61818504 C-159.97778643 382.0296008 -159.98808749 364.44101776 -159.99147415 346.85242939 C-159.99169372 345.72792653 -159.99191328 344.60342367 -159.9921395 343.44484497 C-159.99235778 342.31772773 -159.99257606 341.19061049 -159.99280095 340.02933818 C-159.99324441 337.74555163 -159.99369097 335.46176507 -159.99414062 333.17797852 C-159.99436205 332.04515334 -159.99458348 330.91232817 -159.99481162 329.74517497 C-159.99875935 311.39099071 -160.016215 293.03684616 -160.03950015 274.68267725 C-160.06323775 255.81898965 -160.07567706 236.95532196 -160.07684207 218.09161919 C-160.07775736 207.50823977 -160.08347304 196.92491213 -160.10166168 186.34154701 C-160.11709505 177.32999054 -160.12216398 168.31850187 -160.11392358 159.30693469 C-160.11002883 154.71367642 -160.11088908 150.12055454 -160.12498093 145.52731323 C-160.13779015 141.31343501 -160.13646134 137.09979471 -160.12439021 132.88591649 C-160.12244533 131.37047846 -160.12545501 129.85502315 -160.13423458 128.3396093 C-160.20343081 115.57655258 -159.28954499 102.45942262 -153.12890625 91.00390625 C-152.78408203 90.34076416 -152.43925781 89.67762207 -152.08398438 88.99438477 C-148.80998718 82.95703402 -144.71310811 78.06344975 -139.75390625 73.31640625 C-139.16480469 72.69636719 -138.57570312 72.07632813 -137.96875 71.4375 C-123.8616848 57.57847111 -104.69344484 55.12937085 -85.88525391 55.18603516 C-83.73072499 55.19146467 -81.57639815 55.18602577 -79.421875 55.1796875 C-78.05338496 55.18034712 -76.68489504 55.18162586 -75.31640625 55.18359375 C-74.08019531 55.18472168 -72.84398437 55.18584961 -71.5703125 55.18701172 C-68.75390625 55.31640625 -68.75390625 55.31640625 -67.75390625 56.31640625 C-67.65522834 59.20426495 -67.61675545 62.07253272 -67.61328125 64.9609375 C-67.59492654 66.77149668 -67.57535385 68.58204385 -67.5546875 70.39257812 C-67.52592774 73.24491223 -67.50391186 76.09648699 -67.50341797 78.94897461 C-67.4866763 92.60180931 -66.59239866 104.44306944 -57.60546875 115.50390625 C-48.33093148 124.58277818 -37.4010765 127.84281155 -24.72363281 127.73632812 C-14.274706 127.35061289 -6.29693613 123.46156203 1.24609375 116.31640625 C2.23609375 114.83140625 2.23609375 114.83140625 3.24609375 113.31640625 C1.54453125 114.30640625 1.54453125 114.30640625 -0.19140625 115.31640625 C-8.01323585 118.76939748 -17.64840195 118.72415013 -25.828125 116.46875 C-33.09953414 113.18381019 -38.18766837 107.9636951 -41.32168579 100.66552734 C-42.82064424 96.56688328 -43.18041739 92.717454 -43.14208984 88.375 C-43.1473468 87.62590363 -43.15260376 86.87680725 -43.15802002 86.10501099 C-43.17111167 83.65442404 -43.16252099 81.2044986 -43.15234375 78.75390625 C-43.15436761 77.03572466 -43.15728164 75.31754391 -43.16104126 73.59936523 C-43.16544993 70.00854263 -43.15908072 66.41794479 -43.14501953 62.82714844 C-43.12792846 58.24084071 -43.13777749 53.6550598 -43.15573692 49.06877136 C-43.16661428 45.52384523 -43.16311036 41.97904254 -43.15535355 38.43411255 C-43.15336245 36.74374325 -43.15577221 35.05336249 -43.16279221 33.36300659 C-43.17047221 30.99430964 -43.15871229 28.62644779 -43.14208984 26.2578125 C-43.14816254 25.56978546 -43.15423523 24.88175842 -43.16049194 24.17288208 C-43.06665686 16.89921093 -40.71800488 10.3270215 -35.7265625 4.9921875 C-25.47452872 -3.71696595 -12.26343204 -5.77931855 0 0 Z " fill="#FBFCFC" transform="translate(385.75390625,212.68359375)"/>
<path d="M0 0 C8.10034916 4.74750899 10.84569489 9.51560853 15.24609375 18.31640625 C15.24609375 30.52640625 15.24609375 42.73640625 15.24609375 55.31640625 C80.25609375 55.31640625 145.26609375 55.31640625 212.24609375 55.31640625 C212.57609375 67.85640625 212.90609375 80.39640625 213.24609375 93.31640625 C217.19603724 106.15372259 220.42058657 115.20945532 232.078125 122.171875 C242.82039844 127.84302116 254.52954221 128.88772127 266.453125 126.73828125 C273.76128307 124.43814566 279.06192593 119.86042954 284.24609375 114.31640625 C284.24609375 113.98640625 284.24609375 113.65640625 284.24609375 113.31640625 C283.78203125 113.60515625 283.31796875 113.89390625 282.83984375 114.19140625 C274.77454797 118.52499801 265.58792845 118.41421999 256.71875 116.87890625 C248.57378259 114.29832252 243.04998302 107.83964237 239.15625 100.52734375 C237.22462259 95.83506429 237.11625198 91.29872506 237.10083008 86.26635742 C237.09579216 85.23115211 237.09579216 85.23115211 237.09065247 84.17503357 C237.08118698 81.90312885 237.07920148 79.63129819 237.078125 77.359375 C237.07490903 75.77142812 237.0715447 74.18348154 237.06803894 72.59553528 C237.06205844 69.26933099 237.0601979 65.94315264 237.06079102 62.61694336 C237.0608925 58.37032621 237.04724964 54.12387677 237.03001881 49.87729931 C237.01885864 46.59747057 237.01687305 43.31768185 237.01740074 40.03783607 C237.01622632 38.47306046 237.01183496 36.90828362 237.00406837 35.34352684 C236.90694463 13.75223085 236.90694463 13.75223085 245.0390625 5.49609375 C251.54769312 -0.521557 257.70022508 -3.26270421 266.55859375 -3.18359375 C267.3047998 -3.17787354 268.05100586 -3.17215332 268.81982422 -3.16625977 C277.16920773 -2.89724622 282.94896238 0.00370802 289.12109375 5.56640625 C297.555011 15.18037777 296.73977628 25.25340168 296.49609375 37.37890625 C296.47599996 39.12042219 296.45775428 40.86196049 296.44140625 42.60351562 C296.39763369 46.84170402 296.32876623 51.07880546 296.24609375 55.31640625 C296.92910553 55.30974442 297.61211731 55.30308258 298.31582642 55.29621887 C304.81595594 55.23560586 311.31600431 55.19018062 317.81635475 55.16096973 C321.15671217 55.14544604 324.49665496 55.12278311 327.83691406 55.09008789 C331.69472274 55.05329877 335.55220287 55.03658738 339.41015625 55.0234375 C340.58470367 55.00795364 341.7592511 54.99246979 342.96939087 54.97651672 C363.59768206 54.97241698 380.2508398 62.11742016 395.43359375 75.94140625 C422.61687256 104.35520386 411.24609375 155.52909319 411.24609375 187.31640625 C231.72609375 187.31640625 52.20609375 187.31640625 -132.75390625 187.31640625 C-150.4162932 327.82907725 -150.4162932 327.82907725 -126.37890625 457.94140625 C-126.0336792 458.61034912 -125.68845215 459.27929199 -125.33276367 459.96850586 C-104.27000272 499.43081468 -66.48907913 528.60007397 -24.07202023 541.8948648 C-5.32422837 547.57182588 12.86577638 548.90735712 32.37036133 548.86230469 C34.9152336 548.87106541 37.46010039 548.88155975 40.00495911 548.89363098 C45.45128714 548.91559842 50.89742174 548.92569939 56.34379005 548.9245224 C64.297267 548.92282645 72.25057386 548.94347364 80.20400485 548.9688777 C93.22006056 549.00984942 106.2360851 549.03322534 119.25219727 549.04541016 C131.69851853 549.05709823 144.14477753 549.0771305 156.59106445 549.10888672 C157.73110179 549.11178649 157.73110179 549.11178649 158.89417018 549.11474484 C162.71746955 549.1245124 166.54076851 549.13443258 170.36406732 549.14441967 C196.71440181 549.21303107 223.06469311 549.25850725 249.41510415 549.28316784 C265.62876665 549.29839797 281.84218962 549.32881868 298.05574334 549.39034224 C303.30329131 549.40924524 308.55085454 549.423024 313.79841989 549.43612123 C318.34649222 549.44797097 322.89442457 549.46773386 327.44243288 549.49440098 C330.71381108 549.51105352 333.98517655 549.51487623 337.2565918 549.52050781 C338.92304654 549.5347945 338.92304654 549.5347945 340.62316704 549.54936981 C355.83327834 549.53980248 369.18411818 544.33195958 380.1953125 533.69921875 C383.45287165 529.91424526 385.41187035 525.92726439 387.24609375 521.31640625 C387.5653294 520.61757204 387.88456505 519.91873783 388.21347451 519.19872683 C390.89299435 513.08955636 391.82476911 508.0545065 391.76507568 501.42024231 C391.77257694 500.47513454 391.78007819 499.53002676 391.78780675 498.55627936 C391.80797577 495.41334934 391.80000014 492.27114854 391.79199219 489.12817383 C391.80073765 486.86081232 391.81122681 484.59345697 391.82331848 482.32611084 C391.85120879 476.16245532 391.85458088 469.99900061 391.85359859 463.83529115 C391.85675356 457.29922291 391.88246306 450.76324124 391.90557861 444.22721863 C391.94227628 433.17842023 391.96363884 422.12966231 391.97509766 411.08081055 C391.98672658 399.90303983 392.00664495 388.72533938 392.03857422 377.54760742 C392.04051 376.86840446 392.04244577 376.18920149 392.04444021 375.48941661 C392.05227402 372.75319724 392.06017717 370.01697808 392.06816837 367.28075916 C392.24139328 307.95949019 392.29087522 248.63790367 392.24609375 189.31640625 C398.51609375 189.31640625 404.78609375 189.31640625 411.24609375 189.31640625 C411.29172877 230.5492622 411.32711819 271.78211457 411.34822441 313.0149908 C411.35072579 317.88401735 411.35331444 322.75304384 411.35595703 327.62207031 C411.35674396 329.07606036 411.35674396 329.07606036 411.35754679 330.55942394 C411.36624702 346.25016905 411.3820149 361.94089948 411.40039934 377.63163589 C411.41910901 393.73435997 411.43021273 409.83707637 411.43427074 425.93981087 C411.43701358 435.87431195 411.44567359 445.80877155 411.46192668 455.74325986 C411.47250672 462.55770271 411.47569206 469.37212416 411.4730965 476.18657462 C411.47181681 480.11685906 411.47376481 484.04707108 411.4845047 487.97734261 C411.49427734 491.58006085 411.49470276 495.18265835 411.48789154 498.78538229 C411.48665387 500.69670586 411.4952436 502.60802813 411.50425637 504.51933086 C411.44286451 522.279895 406.12290579 536.58074099 394 549.7578125 C380.92065926 562.45057174 363.38568499 567.49359862 345.45851803 567.44783401 C344.32317219 567.45091297 344.32317219 567.45091297 343.16489008 567.45405412 C340.6321219 567.45970235 338.09940848 567.45826957 335.56663513 567.45684814 C333.73090985 567.45943303 331.89518512 567.46244654 330.05946118 567.46585155 C325.01720048 567.47391032 319.97495402 567.47571049 314.93268764 567.47644901 C309.49349707 567.47830153 304.05431387 567.48584987 298.61512756 567.49258423 C286.72242037 567.50616018 274.82971655 567.51219114 262.9370029 567.51659489 C255.50930698 567.5193586 248.08161236 567.5235962 240.65391731 567.52809906 C220.08361486 567.54029085 199.51331345 567.55059029 178.94300747 567.55397415 C177.62672057 567.55419372 176.31043366 567.55441328 174.95425928 567.5546395 C173.63484561 567.55485778 172.31543194 567.55507606 170.95603603 567.55530095 C168.28245826 567.5557435 165.6088805 567.55619061 162.93530273 567.55664062 C162.27241372 567.55675002 161.60952471 567.55685941 160.92654816 567.55697211 C139.43936385 567.56060157 117.9522133 567.57651826 96.46504192 567.59983099 C73.73247251 567.62444971 50.99992154 567.63814123 28.26733834 567.63934207 C15.88145319 567.64025823 3.49561226 567.64599573 -8.8902607 567.66416168 C-19.43792546 567.67957722 -29.98553234 567.68467454 -40.53320623 567.67642358 C-45.91211566 567.67252223 -51.29090859 567.67342158 -56.66980362 567.68748093 C-61.60046831 567.70025052 -66.53092932 567.69899549 -71.46159386 567.68689021 C-73.23887828 567.68493851 -75.01617728 567.68798711 -76.79344124 567.69673458 C-100.20942065 567.80462547 -121.67826493 561.81600543 -139.08203125 545.2421875 C-147.3427077 536.19650524 -153.10809242 526.02138748 -156.75390625 514.31640625 C-156.9859375 513.5790625 -157.21796875 512.84171875 -157.45703125 512.08203125 C-160.30649516 501.90537444 -159.90127398 491.1808945 -159.89434814 480.71260071 C-159.89693586 479.13898607 -159.89995014 477.56537209 -159.90335155 475.991759 C-159.9113768 471.68790718 -159.9132086 467.38407208 -159.91394901 463.08021367 C-159.91580735 458.43042949 -159.92335847 453.78065384 -159.93008423 449.13087463 C-159.94363521 438.97375997 -159.94968693 428.81664926 -159.95409489 418.65952706 C-159.95686222 412.31241221 -159.96110041 405.96529887 -159.96559906 399.61818504 C-159.97778643 382.0296008 -159.98808749 364.44101776 -159.99147415 346.85242939 C-159.99169372 345.72792653 -159.99191328 344.60342367 -159.9921395 343.44484497 C-159.99235778 342.31772773 -159.99257606 341.19061049 -159.99280095 340.02933818 C-159.99324441 337.74555163 -159.99369097 335.46176507 -159.99414062 333.17797852 C-159.99436205 332.04515334 -159.99458348 330.91232817 -159.99481162 329.74517497 C-159.99875935 311.39099071 -160.016215 293.03684616 -160.03950015 274.68267725 C-160.06323775 255.81898965 -160.07567706 236.95532196 -160.07684207 218.09161919 C-160.07775736 207.50823977 -160.08347304 196.92491213 -160.10166168 186.34154701 C-160.11709505 177.32999054 -160.12216398 168.31850187 -160.11392358 159.30693469 C-160.11002883 154.71367642 -160.11088908 150.12055454 -160.12498093 145.52731323 C-160.13779015 141.31343501 -160.13646134 137.09979471 -160.12439021 132.88591649 C-160.12244533 131.37047846 -160.12545501 129.85502315 -160.13423458 128.3396093 C-160.20343081 115.57655258 -159.28954499 102.45942262 -153.12890625 91.00390625 C-152.78408203 90.34076416 -152.43925781 89.67762207 -152.08398438 88.99438477 C-148.80998718 82.95703402 -144.71310811 78.06344975 -139.75390625 73.31640625 C-139.16480469 72.69636719 -138.57570312 72.07632813 -137.96875 71.4375 C-123.8616848 57.57847111 -104.69344484 55.12937085 -85.88525391 55.18603516 C-83.73072499 55.19146467 -81.57639815 55.18602577 -79.421875 55.1796875 C-78.05338496 55.18034712 -76.68489504 55.18162586 -75.31640625 55.18359375 C-74.08019531 55.18472168 -72.84398437 55.18584961 -71.5703125 55.18701172 C-68.75390625 55.31640625 -68.75390625 55.31640625 -67.75390625 56.31640625 C-67.65522834 59.20426495 -67.61675545 62.07253272 -67.61328125 64.9609375 C-67.59492654 66.77149668 -67.57535385 68.58204385 -67.5546875 70.39257812 C-67.52592774 73.24491223 -67.50391186 76.09648699 -67.50341797 78.94897461 C-67.4866763 92.60180931 -66.59239866 104.44306944 -57.60546875 115.50390625 C-48.33093148 124.58277818 -37.4010765 127.84281155 -24.72363281 127.73632812 C-14.274706 127.35061289 -6.29693613 123.46156203 1.24609375 116.31640625 C2.23609375 114.83140625 2.23609375 114.83140625 3.24609375 113.31640625 C1.54453125 114.30640625 1.54453125 114.30640625 -0.19140625 115.31640625 C-8.01323585 118.76939748 -17.64840195 118.72415013 -25.828125 116.46875 C-33.09953414 113.18381019 -38.18766837 107.9636951 -41.32168579 100.66552734 C-42.82064424 96.56688328 -43.18041739 92.717454 -43.14208984 88.375 C-43.1473468 87.62590363 -43.15260376 86.87680725 -43.15802002 86.10501099 C-43.17111167 83.65442404 -43.16252099 81.2044986 -43.15234375 78.75390625 C-43.15436761 77.03572466 -43.15728164 75.31754391 -43.16104126 73.59936523 C-43.16544993 70.00854263 -43.15908072 66.41794479 -43.14501953 62.82714844 C-43.12792846 58.24084071 -43.13777749 53.6550598 -43.15573692 49.06877136 C-43.16661428 45.52384523 -43.16311036 41.97904254 -43.15535355 38.43411255 C-43.15336245 36.74374325 -43.15577221 35.05336249 -43.16279221 33.36300659 C-43.17047221 30.99430964 -43.15871229 28.62644779 -43.14208984 26.2578125 C-43.14816254 25.56978546 -43.15423523 24.88175842 -43.16049194 24.17288208 C-43.06665686 16.89921093 -40.71800488 10.3270215 -35.7265625 4.9921875 C-25.47452872 -3.71696595 -12.26343204 -5.77931855 0 0 Z " fill="#1791E0" transform="translate(385.75390625,212.68359375)"/>
<path d="M0 0 C-4.0624854 2.7083236 -8.44760755 4.71070212 -12.84375 6.81445312 C-16.35955385 8.53600746 -19.60255386 10.33915677 -22.76953125 12.6484375 C-26.17932916 15.13053949 -29.11209602 16.4924454 -33 18 C-32.01 18.99 -32.01 18.99 -31 20 C-32.07121094 20.71027344 -33.14242187 21.42054688 -34.24609375 22.15234375 C-35.64326945 23.08066854 -37.04040267 24.00905726 -38.4375 24.9375 C-39.14455078 25.40607422 -39.85160156 25.87464844 -40.58007812 26.35742188 C-41.25361328 26.80537109 -41.92714844 27.25332031 -42.62109375 27.71484375 C-43.2442749 28.12855225 -43.86745605 28.54226074 -44.50952148 28.96850586 C-45.98019886 29.9205145 -45.98019886 29.9205145 -47 31 C-46.35417969 30.7834375 -45.70835937 30.566875 -45.04296875 30.34375 C-27.97765561 25.30119509 -8.55590993 26.75979963 7.171875 35.19140625 C16.18759558 40.95698446 22.96714174 48.40257442 27.75 57.9375 C28.06582031 58.53240234 28.38164063 59.12730469 28.70703125 59.74023438 C30.6857466 63.65911867 31.34704278 66.62859578 31 71 C29.80246094 70.45730469 28.60492187 69.91460937 27.37109375 69.35546875 C15.51214899 64.09950809 4.19185074 59.68068137 -9 60 C-8.34 61.32 -7.68 62.64 -7 64 C-13.91010332 65.05208638 -20.70405316 65.19201776 -27.6875 65.1875 C-28.84056641 65.18741943 -29.99363281 65.18733887 -31.18164062 65.18725586 C-49.8764789 65.06176055 -49.8764789 65.06176055 -56 62 C-55.360625 62.639375 -54.72125 63.27875 -54.0625 63.9375 C-53.60359375 64.40027344 -53.1446875 64.86304688 -52.671875 65.33984375 C-51.46828644 66.53499594 -50.24728727 67.71270635 -49.015625 68.87890625 C-22.54005938 94.36867953 -9.44519173 129.35441366 -4 165 C-3.88140625 165.74459473 -3.7628125 166.48918945 -3.640625 167.25634766 C-1.71317915 179.63272987 -1.07131564 192.50100106 -2 205 C-3 206 -3 206 -5.5625 206.0625 C-6.366875 206.041875 -7.17125 206.02125 -8 206 C-8 206.66 -8 207.32 -8 208 C-7.22688477 208.01998047 -6.45376953 208.03996094 -5.65722656 208.06054688 C3.24866242 208.49186347 10.87702537 210.53131635 19.25 213.5 C20.47074219 213.91636719 21.69148438 214.33273437 22.94921875 214.76171875 C31.81624681 217.81624681 31.81624681 217.81624681 33 219 C33.10968976 220.89024153 33.14910756 222.78459523 33.16113281 224.67797852 C33.17074036 225.89336807 33.1803479 227.10875763 33.19024658 228.36097717 C33.19509694 229.70028496 33.19937518 231.03959493 33.203125 232.37890625 C33.20887732 233.74836733 33.21463505 235.11782839 33.22039795 236.48728943 C33.23092302 239.36661149 33.23675436 242.24590554 33.24023438 245.12524414 C33.24569229 248.79811792 33.26965504 252.47061592 33.29820633 256.14337254 C33.31693027 258.97713762 33.32204368 261.81081446 33.32357025 264.64463615 C33.32803716 266.65193358 33.34664668 268.65918361 33.36553955 270.66639709 C33.330785 284.99687557 33.330785 284.99687557 28.31640625 291.0234375 C27.73761719 291.46945312 27.15882813 291.91546875 26.5625 292.375 C25.98628906 292.83648438 25.41007812 293.29796875 24.81640625 293.7734375 C21.23907524 296.18909758 18.62785831 297.25011817 14.27550125 297.24609566 C13.32353686 297.25007775 12.37157246 297.25405985 11.39076066 297.25816262 C10.34796504 297.25233693 9.30516942 297.24651125 8.23077393 297.24050903 C6.56568334 297.24307231 6.56568334 297.24307231 4.86695457 297.24568737 C1.13421987 297.24899086 -2.59833646 297.23796427 -6.33105469 297.22705078 C-9.00156561 297.22648685 -11.6720655 297.22671473 -14.34257507 297.22793579 C-20.09874073 297.22898486 -25.85486106 297.22270597 -31.61101532 297.21146011 C-39.93345728 297.19521105 -48.25587731 297.18999772 -56.57833341 297.18748413 C-70.08071777 297.18310609 -83.58307797 297.16979404 -97.08544922 297.15087891 C-110.20230997 297.13252292 -123.31916416 297.11836504 -136.43603516 297.10986328 C-137.24446006 297.10933783 -138.05288497 297.10881239 -138.8858076 297.10827102 C-142.94140833 297.10566096 -146.99700911 297.10313354 -151.05260992 297.10064721 C-184.70175746 297.07991133 -218.35087577 297.04468284 -252 297 C-249.60517129 294.50230932 -247.51509036 293.11079566 -244.36328125 291.64453125 C-242.93266357 290.97043213 -242.93266357 290.97043213 -241.47314453 290.28271484 C-240.43013184 289.79754395 -239.38711914 289.31237305 -238.3125 288.8125 C-236.0444879 287.74057396 -233.77761638 286.66623226 -231.51171875 285.58984375 C-230.91258667 285.30546448 -230.31345459 285.02108521 -229.69616699 284.72808838 C-222.29285945 281.20389617 -214.95649904 277.54571198 -207.625 273.875 C-206.935271 273.52975281 -206.24554199 273.18450562 -205.53491211 272.82879639 C-195.49824547 267.79956517 -185.53329225 262.64845603 -175.6171875 257.38574219 C-142.86059447 240.04185954 -109.58298394 223.79413269 -74 213 C-72.77152344 212.62359375 -71.54304687 212.2471875 -70.27734375 211.859375 C-58.9863415 208.62302355 -46.78485696 206 -35 206 C-34.13833505 195.74102313 -33.72331391 185.54161417 -33.6875 175.25 C-33.68454926 174.49486115 -33.68159851 173.73972229 -33.67855835 172.96170044 C-33.65969452 151.55012488 -36.42549166 130.77119049 -45 111 C-45.39614502 110.08105957 -45.39614502 110.08105957 -45.80029297 109.14355469 C-51.08367439 97.02302793 -57.17199276 84.1292269 -67 75 C-67.10957031 76.03898438 -67.21914063 77.07796875 -67.33203125 78.1484375 C-68.21221219 86.03788733 -69.29094375 93.486884 -72 101 C-72.99 101 -73.98 101 -75 101 C-75 103.31 -75 105.62 -75 108 C-76.32 107.67 -77.64 107.34 -79 107 C-79.03738281 107.87140625 -79.07476563 108.7428125 -79.11328125 109.640625 C-79.50412618 116.72181548 -80.41260521 123.13196566 -82.30078125 129.95703125 C-83.51431588 135.23827971 -83.74739812 140.59954602 -84 146 C-96.07237904 139.3686932 -104.71462116 131.16643503 -109.375 117.9375 C-112.78843673 105.71196927 -112.39348973 91.56437598 -106.53515625 80.14453125 C-105.0946061 77.70369688 -103.59526973 75.34180264 -102 73 C-101.01 71.515 -101.01 71.515 -100 70 C-113.02435589 78.8330139 -113.02435589 78.8330139 -125 89 C-125.28875 88.360625 -125.5775 87.72125 -125.875 87.0625 C-126.82823451 84.84793921 -126.82823451 84.84793921 -129 84 C-129.26554688 84.59167969 -129.53109375 85.18335938 -129.8046875 85.79296875 C-131.03337579 88.06162523 -132.28387757 89.51847605 -134.125 91.3125 C-134.74632812 91.91964844 -135.36765625 92.52679687 -136.0078125 93.15234375 C-137.95659836 94.95974711 -139.96364298 96.66747106 -142 98.375 C-145.78842309 101.61063762 -148.6561158 105.23956596 -151.5546875 109.27734375 C-152.03164063 109.84582031 -152.50859375 110.41429687 -153 111 C-153.66 111 -154.32 111 -155 111 C-158.56525613 100.33275365 -158.92859587 86.79550672 -154.31640625 76.4140625 C-146.72129015 62.48592674 -134.92905303 53.1021193 -119.8125 48.125 C-115.42475961 46.92451423 -111.53028053 46.74831775 -107 47 C-107 46.34 -107 45.68 -107 45 C-108.72283203 44.81824219 -108.72283203 44.81824219 -110.48046875 44.6328125 C-119.69786644 43.64402626 -128.8525756 42.51918356 -138 41 C-138 40.01 -138 39.02 -138 38 C-136.68 37.67 -135.36 37.34 -134 37 C-134 36.34 -134 35.68 -134 35 C-147.04535693 33.97683475 -159.97368962 33.31918576 -173 35 C-171.35732767 33.30433824 -169.68893958 31.6491061 -168 30 C-167.3915625 29.38382812 -166.783125 28.76765625 -166.15625 28.1328125 C-155.18176859 17.60877622 -141.08231035 12.11735404 -125.9375 11.625 C-112.20763646 12.05800489 -98.06606719 17.49435625 -88 27 C-85.51260187 29.8964158 -83.21207628 32.88926773 -81 36 C-80.79375 34.7625 -80.5875 33.525 -80.375 32.25 C-77.37466689 19.06922628 -69.17026827 8.01023208 -58.15234375 0.30859375 C-39.07441249 -11.29051146 -19.14540848 -10.30159035 0 0 Z " fill="#FBBF3E" transform="translate(714,437)"/>
<path d="M0 0 C0.82371094 0.67675781 1.64742187 1.35351562 2.49609375 2.05078125 C23.70384532 20.14850373 36.76660102 47.51783037 40 75 C40.11261343 78.31400917 40.09527587 81.62209485 40.0625 84.9375 C40.05798828 85.81212891 40.05347656 86.68675781 40.04882812 87.58789062 C40.03714834 89.72529047 40.01921689 91.86265463 40 94 C2.47531272 111.76838521 2.47531272 111.76838521 -18.05322266 109.34423828 C-21.04940619 108.99422844 -24.03288185 108.78240823 -27.04296875 108.58984375 C-52.53468692 106.63787444 -77.83560727 99.06309294 -102 91 C-135.91416584 80.00081108 -170.71551098 78.64489704 -206 81 C-204.41280846 57.24685768 -195.69589901 35.66145906 -181 17 C-180.59797363 16.484375 -180.19594727 15.96875 -179.78173828 15.4375 C-170.79973293 4.0152173 -160.4345963 -5.39750071 -148 -13 C-147.18144531 -13.53882813 -146.36289062 -14.07765625 -145.51953125 -14.6328125 C-131.43559268 -23.49238458 -115.42778265 -28.78930071 -99 -31 C-98.17757812 -31.12890625 -97.35515625 -31.2578125 -96.5078125 -31.390625 C-61.38702065 -36.27923339 -26.51365344 -22.39584355 0 0 Z " fill="#FDAD05" transform="translate(549,553)"/>
<path d="M0 0 C-4.0624854 2.7083236 -8.44760755 4.71070212 -12.84375 6.81445312 C-16.35955385 8.53600746 -19.60255386 10.33915677 -22.76953125 12.6484375 C-26.17932916 15.13053949 -29.11209602 16.4924454 -33 18 C-32.01 18.99 -32.01 18.99 -31 20 C-32.07121094 20.71027344 -33.14242187 21.42054688 -34.24609375 22.15234375 C-35.64326945 23.08066854 -37.04040267 24.00905726 -38.4375 24.9375 C-39.14455078 25.40607422 -39.85160156 25.87464844 -40.58007812 26.35742188 C-41.25361328 26.80537109 -41.92714844 27.25332031 -42.62109375 27.71484375 C-43.2442749 28.12855225 -43.86745605 28.54226074 -44.50952148 28.96850586 C-45.98019886 29.9205145 -45.98019886 29.9205145 -47 31 C-46.35417969 30.7834375 -45.70835937 30.566875 -45.04296875 30.34375 C-27.97765561 25.30119509 -8.55590993 26.75979963 7.171875 35.19140625 C16.18759558 40.95698446 22.96714174 48.40257442 27.75 57.9375 C28.22373047 58.82985352 28.22373047 58.82985352 28.70703125 59.74023438 C30.6857466 63.65911867 31.34704278 66.62859578 31 71 C29.20369141 70.18595703 29.20369141 70.18595703 27.37109375 69.35546875 C15.51214899 64.09950809 4.19185074 59.68068137 -9 60 C-8.34 61.32 -7.68 62.64 -7 64 C-13.91010332 65.05208638 -20.70405316 65.19201776 -27.6875 65.1875 C-28.84056641 65.18741943 -29.99363281 65.18733887 -31.18164062 65.18725586 C-49.8764789 65.06176055 -49.8764789 65.06176055 -56 62 C-55.360625 62.639375 -54.72125 63.27875 -54.0625 63.9375 C-53.60359375 64.40027344 -53.1446875 64.86304688 -52.671875 65.33984375 C-51.46828644 66.53499594 -50.24728727 67.71270635 -49.015625 68.87890625 C-22.54005938 94.36867953 -9.44519173 129.35441366 -4 165 C-3.88140625 165.74459473 -3.7628125 166.48918945 -3.640625 167.25634766 C-1.67986091 179.84667063 -1.84753444 192.26912572 -2 205 C-12.56 204.67 -23.12 204.34 -34 204 C-33.95359375 200.90882813 -33.9071875 197.81765625 -33.859375 194.6328125 C-33.52042852 165.77301491 -33.30901857 137.95718653 -45 111 C-45.39614502 110.08105957 -45.39614502 110.08105957 -45.80029297 109.14355469 C-51.08367439 97.02302793 -57.17199276 84.1292269 -67 75 C-67.10957031 76.03898438 -67.21914063 77.07796875 -67.33203125 78.1484375 C-68.21221219 86.03788733 -69.29094375 93.486884 -72 101 C-72.99 101 -73.98 101 -75 101 C-75 103.31 -75 105.62 -75 108 C-76.98 107.505 -76.98 107.505 -79 107 C-79.03738281 107.87140625 -79.07476563 108.7428125 -79.11328125 109.640625 C-79.50412618 116.72181548 -80.41260521 123.13196566 -82.30078125 129.95703125 C-83.51431588 135.23827971 -83.74739812 140.59954602 -84 146 C-96.07237904 139.3686932 -104.71462116 131.16643503 -109.375 117.9375 C-112.78843673 105.71196927 -112.39348973 91.56437598 -106.53515625 80.14453125 C-105.0946061 77.70369688 -103.59526973 75.34180264 -102 73 C-101.01 71.515 -101.01 71.515 -100 70 C-113.02435589 78.8330139 -113.02435589 78.8330139 -125 89 C-125.433125 88.0409375 -125.433125 88.0409375 -125.875 87.0625 C-126.82823451 84.84793921 -126.82823451 84.84793921 -129 84 C-129.26554688 84.59167969 -129.53109375 85.18335938 -129.8046875 85.79296875 C-131.03337579 88.06162523 -132.28387757 89.51847605 -134.125 91.3125 C-134.74632812 91.91964844 -135.36765625 92.52679687 -136.0078125 93.15234375 C-137.95659836 94.95974711 -139.96364298 96.66747106 -142 98.375 C-145.78842309 101.61063762 -148.6561158 105.23956596 -151.5546875 109.27734375 C-152.03164063 109.84582031 -152.50859375 110.41429687 -153 111 C-153.66 111 -154.32 111 -155 111 C-158.56525613 100.33275365 -158.92859587 86.79550672 -154.31640625 76.4140625 C-146.72129015 62.48592674 -134.92905303 53.1021193 -119.8125 48.125 C-115.42475961 46.92451423 -111.53028053 46.74831775 -107 47 C-107 46.34 -107 45.68 -107 45 C-108.14855469 44.87882812 -109.29710937 44.75765625 -110.48046875 44.6328125 C-119.69786644 43.64402626 -128.8525756 42.51918356 -138 41 C-138 40.01 -138 39.02 -138 38 C-136.02 37.505 -136.02 37.505 -134 37 C-134 36.34 -134 35.68 -134 35 C-147.04535693 33.97683475 -159.97368962 33.31918576 -173 35 C-171.35732767 33.30433824 -169.68893958 31.6491061 -168 30 C-167.08734375 29.07574219 -167.08734375 29.07574219 -166.15625 28.1328125 C-155.18176859 17.60877622 -141.08231035 12.11735404 -125.9375 11.625 C-112.20763646 12.05800489 -98.06606719 17.49435625 -88 27 C-85.51260187 29.8964158 -83.21207628 32.88926773 -81 36 C-80.690625 34.14375 -80.690625 34.14375 -80.375 32.25 C-77.37466689 19.06922628 -69.17026827 8.01023208 -58.15234375 0.30859375 C-39.07441249 -11.29051146 -19.14540848 -10.30159035 0 0 Z " fill="#5B9706" transform="translate(714,437)"/>
<path d="M0 0 C0.73436279 0.00366577 1.46872559 0.00733154 2.2253418 0.0111084 C4.01743909 0.02058654 5.80950827 0.0351552 7.6015625 0.05078125 C7.69439912 8.29166257 7.76539607 16.53232401 7.80881119 24.77359962 C7.82965239 28.60071967 7.8579055 32.42748094 7.90332031 36.25439453 C7.94690351 39.95025515 7.97072568 43.64577151 7.98107147 47.34186935 C7.98844063 48.74925528 8.00283113 50.15662318 8.02448273 51.56386185 C8.05367642 53.54059596 8.05519775 55.51767929 8.05566406 57.49462891 C8.06454651 58.61825836 8.07342896 59.74188782 8.08258057 60.89956665 C7.32089645 65.8894626 4.7883451 68.98267691 1.1015625 72.30078125 C-3.31642945 75.39337561 -6.07837379 76.30047833 -11.53607178 76.29129028 C-13.42488319 76.29541428 -13.42488319 76.29541428 -15.35185242 76.29962158 C-16.74466038 76.29254376 -18.13746738 76.28527414 -19.53027344 76.27783203 C-20.99882499 76.27726781 -22.46737712 76.2775847 -23.93592834 76.27871704 C-27.92115098 76.27929112 -31.90625335 76.26752792 -35.89144802 76.25356913 C-40.05679656 76.24107094 -44.22214781 76.23989199 -48.38751221 76.23751831 C-56.27454152 76.23130086 -64.16151542 76.21488646 -72.04852033 76.19481933 C-81.02787823 76.17246858 -90.00723877 76.16146897 -98.98661757 76.15142846 C-117.45725563 76.13052047 -135.92784211 76.09533933 -154.3984375 76.05078125 C-151.05080901 72.57925057 -147.51062033 70.09186416 -143.3984375 67.61328125 C-137.03808626 63.71345541 -130.76278545 59.70375547 -124.5234375 55.61328125 C-116.08528089 50.10302468 -107.55517197 44.77611968 -98.92138672 39.57861328 C-96.12453338 37.88491208 -93.34173111 36.16926505 -90.55859375 34.453125 C-71.37356046 22.68881735 -51.96796518 11.75130412 -30.3984375 5.05078125 C-29.46128906 4.73753906 -28.52414062 4.42429687 -27.55859375 4.1015625 C-18.47124289 1.15858157 -9.52580509 -0.09137593 0 0 Z " fill="#F19820" transform="translate(738.3984375,657.94921875)"/>
<path d="M0 0 C0.74620605 0.00572021 1.49241211 0.01144043 2.26123047 0.01733398 C10.61061398 0.28634753 16.39036863 3.18730177 22.5625 8.75 C31.11053969 18.50488543 30.17318262 28.75329741 29.9375 41.0625 C29.855 47.146875 29.7725 53.23125 29.6875 59.5 C45.1975 59.5 60.7075 59.5 76.6875 59.5 C76.6875 59.83 76.6875 60.16 76.6875 60.5 C61.5075 60.83 46.3275 61.16 30.6875 61.5 C30.51751611 72.85192737 30.51751611 72.85192737 30.38964844 84.2043457 C30.20766676 95.09588885 28.8954457 104.21894198 22.6875 113.5 C20.1875 114.5625 20.1875 114.5625 16.6875 115.5 C15.94886719 115.83128906 15.21023438 116.16257812 14.44921875 116.50390625 C5.72798946 120.30207439 -5.07609055 121.81855657 -14.19140625 118.4296875 C-21.39010723 113.97160872 -26.06557138 107.41578379 -28.66552734 99.42747498 C-30.06008433 93.11726906 -29.71772604 86.58514271 -29.67578125 80.15234375 C-29.67526156 78.57011414 -29.67578348 76.98788388 -29.67729187 75.40565491 C-29.67720258 72.10326389 -29.66686012 68.80111916 -29.64868164 65.4987793 C-29.6259774 61.28362961 -29.62545844 57.06883842 -29.63219929 52.85364437 C-29.63555362 49.59095622 -29.628882 46.32834857 -29.61907005 43.06567574 C-29.61524439 41.51207463 -29.6140588 39.95846454 -29.6156559 38.40485954 C-29.61935309 16.90303603 -29.61935309 16.90303603 -21.51953125 8.6796875 C-15.01090063 2.66203675 -8.85836867 -0.07911046 0 0 Z " fill="#018AE0" transform="translate(652.3125,209.5)"/>
<path d="M0 0 C7.49390076 4.39207749 12.69943874 9.90422172 15.24609375 18.31640625 C16.04471021 24.81772803 15.71896552 31.40913112 15.55859375 37.94140625 C15.53347169 39.72653116 15.51066544 41.51169024 15.49023438 43.296875 C15.43556595 47.63757343 15.34951323 51.97660686 15.24609375 56.31640625 C17.88609375 56.31640625 20.52609375 56.31640625 23.24609375 56.31640625 C23.24609375 56.64640625 23.24609375 56.97640625 23.24609375 57.31640625 C20.93609375 57.31640625 18.62609375 57.31640625 16.24609375 57.31640625 C16.26704102 58.34934814 16.28798828 59.38229004 16.30957031 60.4465332 C16.38271204 64.32855012 16.42815895 68.21050793 16.46582031 72.09301758 C16.48576875 73.76402067 16.51293776 75.43495549 16.54785156 77.10571289 C16.79595638 89.29568651 16.49163229 100.45793787 8.24609375 110.31640625 C-1.34299172 117.42623433 -11.14352488 118.93216509 -22.75390625 117.31640625 C-30.06921833 115.25839006 -35.72763492 110.75630442 -39.75390625 104.31640625 C-42.0971407 98.85973009 -43.19476846 94.34340873 -43.14208984 88.375 C-43.1473468 87.62590363 -43.15260376 86.87680725 -43.15802002 86.10501099 C-43.17111167 83.65442404 -43.16252099 81.2044986 -43.15234375 78.75390625 C-43.15436761 77.03572466 -43.15728164 75.31754391 -43.16104126 73.59936523 C-43.16544993 70.00854263 -43.15908072 66.41794479 -43.14501953 62.82714844 C-43.12792846 58.24084071 -43.13777749 53.6550598 -43.15573692 49.06877136 C-43.16661428 45.52384523 -43.16311036 41.97904254 -43.15535355 38.43411255 C-43.15336245 36.74374325 -43.15577221 35.05336249 -43.16279221 33.36300659 C-43.17047221 30.99430964 -43.15871229 28.62644779 -43.14208984 26.2578125 C-43.14816254 25.56978546 -43.15423523 24.88175842 -43.16049194 24.17288208 C-43.06665686 16.89921093 -40.71800488 10.3270215 -35.7265625 4.9921875 C-25.47452872 -3.71696595 -12.26343204 -5.77931855 0 0 Z " fill="#018BE2" transform="translate(385.75390625,212.68359375)"/>
<path d="M0 0 C1.20366211 0.23227295 1.20366211 0.23227295 2.43164062 0.46923828 C12.00628253 2.38035712 21.26582456 5.26685939 30.58569336 8.14501953 C52.17563056 14.77537375 73.56725685 20.17942509 96 23 C96 23.66 96 24.32 96 25 C90.66666667 27.66666667 85.33333333 30.33333333 80 33 C79.39422119 33.36174316 78.78844238 33.72348633 78.16430664 34.09619141 C72.97918168 36.26148555 66.73924409 35.48591441 61.1875 35.5 C60.09894714 35.50551376 60.09894714 35.50551376 58.98840332 35.51113892 C41.66050429 35.52513216 25.49308045 32.22619643 8.67944336 28.20605469 C1.17720911 26.42919496 -6.31329072 25.01811802 -13.9375 23.875 C-15.08138184 23.70323242 -16.22526367 23.53146484 -17.40380859 23.35449219 C-25.27075043 22.20039019 -33.0434 21.20100884 -41 21 C-41.84143555 20.97421875 -42.68287109 20.9484375 -43.54980469 20.921875 C-64.50168791 20.34726044 -84.09009891 22.34181879 -104 29 C-105.50820313 29.48919922 -105.50820313 29.48919922 -107.046875 29.98828125 C-109.03737505 30.64044819 -111.02019038 31.31606577 -113 32 C-114.81840385 30.06775868 -116.62974468 28.12966092 -118.4375 26.1875 C-118.95376953 25.64029297 -119.47003906 25.09308594 -120.00195312 24.52929688 C-122.31076605 22.03940058 -123.91358514 20.25924458 -125 17 C-88.85903096 -7.52754711 -41.39154696 -8.08495787 0 0 Z " fill="#04B0F8" transform="translate(419,657)"/>
<path d="M0 0 C1.5639299 -0.00110275 1.5639299 -0.00110275 3.15945435 -0.00222778 C20.84395503 0.03044011 37.27268815 1.56536308 54.5625 5.4375 C55.92800699 5.73568985 57.29373854 6.03285282 58.65966797 6.32910156 C70.14204639 8.82358541 70.14204639 8.82358541 75.30834961 10.02563477 C84.35972924 12.10606591 93.34211313 13.44022999 102.5625 14.4375 C99.47254584 17.76843546 95.82421738 19.45492573 91.7734375 21.38671875 C90.60840195 21.95118462 90.60840195 21.95118462 89.41983032 22.52705383 C86.92850284 23.73223323 84.4330654 24.92862498 81.9375 26.125 C80.31223268 26.91025426 78.68723 27.69605648 77.0625 28.48242188 C70.58852261 31.61023918 64.10664088 34.71989188 57.59472656 37.76806641 C56.80691803 38.13688431 56.0191095 38.50570221 55.20742798 38.88569641 C53.70908457 39.58564045 52.20975456 40.28347742 50.70932007 40.97892761 C47.40818528 42.35807111 47.40818528 42.35807111 44.5625 44.4375 C12.20036186 47.18924068 -21.28221534 34.24239716 -46.44140625 14.0234375 C-48.49284886 12.20635375 -50.49465294 10.36955347 -52.4375 8.4375 C-52.1075 7.7775 -51.7775 7.1175 -51.4375 6.4375 C-49.01599864 5.66647469 -46.65471915 5.02232232 -44.1875 4.4375 C-43.5378125 4.2725 -42.888125 4.1075 -42.21875 3.9375 C-39.96665953 3.38737103 -37.70861331 2.90304117 -35.4375 2.4375 C-34.1215686 2.16280884 -34.1215686 2.16280884 -32.77905273 1.88256836 C-21.92437233 -0.09028378 -10.99994212 -0.00337218 0 0 Z " fill="#0392F2" transform="translate(367.4375,689.5625)"/>
<path d="M0 0 C5.2999647 0.08533038 8.64853971 1.84877029 12.6875 5.25 C15.19212757 9.87392782 15.39735749 14.12293377 14.3125 19.25 C12.89786254 21.36756291 11.37057198 22.75373586 9.42578125 24.39453125 C6.97852322 26.54323285 5.08357291 28.88475746 3.0625 31.4375 C-0.22072976 35.5192023 -3.62011486 39.41992446 -7.1875 43.25 C-11.39678896 47.77828434 -15.36194278 52.449779 -19.23828125 57.265625 C-22.71656499 61.50391651 -26.32940027 65.62101095 -29.94287109 69.74414062 C-33.79193885 74.15540623 -37.43124043 78.67957508 -40.90625 83.39453125 C-43.90537674 86.5186216 -46.90443748 87.164575 -51.125 87.625 C-57.94093887 86.90753275 -62.31892019 81.89405013 -66.8984375 77.19921875 C-67.47026764 76.62218704 -68.04209778 76.04515533 -68.6312561 75.45063782 C-70.44654611 73.61766671 -72.2549773 71.7781284 -74.0625 69.9375 C-76.44187691 67.52132531 -78.82448936 65.10840961 -81.2109375 62.69921875 C-81.78011902 62.12444794 -82.34930054 61.54967712 -82.93572998 60.95748901 C-86.53634094 57.34390632 -90.21572968 53.87680176 -94.12353516 50.59301758 C-98.17577845 47.11325012 -99.44405153 45.04543247 -100.1875 39.5625 C-100.16947154 34.69481574 -97.64550617 32.21407645 -94.4140625 28.81640625 C-90.91289985 25.64001208 -87.6929939 25.97134967 -83.1484375 26.04296875 C-77.4845227 26.51945682 -74.51821616 30.35035992 -70.7890625 34.2109375 C-67.43917323 37.46120181 -63.78482344 40.32308798 -60.140625 43.234375 C-57.6875 45.25 -57.6875 45.25 -56.171875 47.078125 C-54.69508333 48.49233212 -54.69508333 48.49233212 -52.3359375 48.25390625 C-48.79128102 46.91028278 -46.93251542 44.91636993 -44.3125 42.1875 C-43.41789062 41.26839844 -42.52328125 40.34929687 -41.6015625 39.40234375 C-39.51284192 37.17982231 -37.51568457 34.89389086 -35.53125 32.578125 C-30.80905572 27.14676271 -25.67075492 22.12585649 -20.5625 17.0625 C-19.57658623 16.08161806 -18.59090779 15.10049951 -17.60546875 14.11914062 C-15.79294559 12.31469432 -13.97884218 10.51189548 -12.16357422 8.71020508 C-9.66617205 6.22880874 -7.17569349 3.74062706 -4.6875 1.25 C-3.6875 0.25 -3.6875 0.25 0 0 Z " fill="#FD5B05" transform="translate(384.6875,428.75)"/>
<path d="M0 0 C8.54734845 0.89972089 15.13711942 3.76838479 21 10 C21.76699219 10.7321875 22.53398438 11.464375 23.32421875 12.21875 C50.09727362 38.06249222 63.47562211 72.83604125 69 109 C69.11859375 109.74459473 69.2371875 110.48918945 69.359375 111.25634766 C71.32013909 123.84667063 71.15246556 136.26912572 71 149 C60.44 148.67 49.88 148.34 39 148 C39.04640625 144.90882813 39.0928125 141.81765625 39.140625 138.6328125 C39.47957148 109.77301491 39.69098143 81.95718653 28 55 C27.73590332 54.38737305 27.47180664 53.77474609 27.19970703 53.14355469 C21.94207635 41.08210232 15.88149013 28.91198983 6.625 19.375 C2.14766701 14.51607613 0 6.5029866 0 0 Z " fill="#81401B" transform="translate(641,493)"/>
<path d="M0 0 C3.21068376 2.75634172 5.0481419 6.31941126 7.125 9.9375 C30.8699732 50.25887825 69.20388651 77.53517756 114 90 C130.16155903 94.01384356 146.07058736 94.60354637 162.6484375 94.609375 C165.12807268 94.62439856 167.607698 94.64113425 170.08731079 94.65948486 C176.53473434 94.70270201 182.98202306 94.72305496 189.42956543 94.73822021 C196.04036281 94.75795791 202.65101799 94.79990773 209.26171875 94.83984375 C222.17443043 94.91465008 235.08711955 94.96599711 248 95 C248 95.33 248 95.66 248 96 C247.17753957 96.00496522 247.17753957 96.00496522 246.33846378 96.01003075 C232.9662052 96.09142761 219.59405915 96.18369648 206.2219553 96.28752708 C199.75516964 96.33741421 193.28839972 96.38374501 186.8215332 96.421875 C180.57745637 96.45882344 174.33351366 96.5052095 168.08955193 96.55806351 C165.71063534 96.57655666 163.33169006 96.59168324 160.95273018 96.60334396 C157.61361157 96.62029329 154.27479674 96.64934956 150.93579102 96.68115234 C149.95826874 96.68331253 148.98074646 96.68547272 147.97360229 96.68769836 C142.05682111 96.7594081 136.72249373 97.52829564 131 99 C121.46639546 100.87888557 112.0662051 101.20623241 102.375 101.25 C101.25561035 101.25918457 100.1362207 101.26836914 98.98291016 101.27783203 C73.44678778 101.18434791 53.81797781 91.64546627 36 74 C35.01966797 73.11054687 35.01966797 73.11054687 34.01953125 72.203125 C17.3131371 56.80625818 5.86945551 33.60667696 0.5625 11.8125 C0.29796021 10.73367554 0.29796021 10.73367554 0.02807617 9.63305664 C-0.75532141 6.15271655 -1.33853455 3.38570504 0 0 Z " fill="#034D9D" transform="translate(256,667)"/>
<path d="M0 0 C0.99 0 1.98 0 3 0 C6.06310798 6.62836481 8.49858102 13.23398625 10.25 20.3125 C10.41274414 20.96927734 10.57548828 21.62605469 10.74316406 22.30273438 C12.55365744 29.9214135 13.13952762 37.14586008 13.0625 44.9375 C13.05798828 45.81212891 13.05347656 46.68675781 13.04882812 47.58789062 C13.03714834 49.72529047 13.01921689 51.86265463 13 54 C-7.4742285 63.69479042 -24.90449855 71.7520604 -48 69 C-50.15444846 68.82197365 -52.30942573 68.65025057 -54.46484375 68.484375 C-69.07158741 67.21798178 -86.71211728 65.64394136 -100 59 C-100 58.34 -100 57.68 -100 57 C-96.6383119 56.25279166 -93.48361535 55.86138542 -90.04296875 55.7890625 C-73.41571852 55.32727362 -58.35416762 54.00076928 -43 47 C-42.39800781 46.72559082 -41.79601562 46.45118164 -41.17578125 46.16845703 C-24.24992755 38.27699586 -11.86527649 26.38107148 -4.359375 9.11328125 C-3.00758378 6.01736861 -1.53391022 3.00917094 0 0 Z " fill="#FDA004" transform="translate(576,593)"/>
<path d="M0 0 C0.33 0 0.66 0 1 0 C1.17315844 48.63046312 1.33581887 97.26095155 1.48431293 145.89149659 C1.50183555 151.62704614 1.51944549 157.36259542 1.53710938 163.09814453 C1.54062461 164.24003475 1.54413985 165.38192498 1.5477616 166.55841793 C1.60495908 185.07075327 1.66923681 203.58305764 1.736111 222.09536026 C1.80452487 241.07729807 1.86537677 260.05924914 1.91914403 279.04123414 C1.9525869 290.76306354 1.99199502 302.4848422 2.03892837 314.20662548 C2.07050707 322.23435554 2.09476982 330.26208648 2.11317255 338.28985749 C2.12402435 342.92800304 2.13820393 347.56607831 2.16103554 352.20418167 C2.18183684 356.44423249 2.19352226 360.68420374 2.19772999 364.92430259 C2.20090794 366.46404317 2.20752993 368.00378098 2.21781154 369.54349051 C2.23122535 371.62512177 2.23247006 373.70640393 2.23047829 375.78806877 C2.23427549 376.94773466 2.23807269 378.10740055 2.24198496 379.30220783 C2 382 2 382 0 384 C-1.81674126 382.18325874 -1.12549913 379.35651979 -1.12584114 376.91390991 C-1.12729458 376.26809692 -1.12874802 375.62228392 -1.13024551 374.95690084 C-1.13393087 372.76600339 -1.13040744 370.57517442 -1.12698364 368.38427734 C-1.12813446 366.80845287 -1.12972172 365.23262867 -1.13171089 363.65680504 C-1.13590961 359.30558659 -1.13381109 354.9543899 -1.13072467 350.60317135 C-1.12847298 345.91873459 -1.13194902 341.23430172 -1.13470459 336.54986572 C-1.13916377 327.36477257 -1.13818516 318.17968757 -1.13529195 308.9945941 C-1.13303849 301.53324027 -1.13272514 294.07188874 -1.13381577 286.61053467 C-1.133969 285.55077089 -1.13412223 284.49100711 -1.13428011 283.39912927 C-1.13459982 281.24660253 -1.13492403 279.0940758 -1.1352527 276.94154906 C-1.13810793 256.73174086 -1.1348198 236.52193719 -1.12945233 216.31212974 C-1.12498426 198.95092276 -1.12576018 181.58972248 -1.13037109 164.22851562 C-1.13571611 144.09367831 -1.13783323 123.95884496 -1.13475883 103.82400703 C-1.13444026 101.6791598 -1.13412589 99.53431257 -1.13381577 97.38946533 C-1.13366149 96.33401091 -1.13350721 95.27855649 -1.13334826 94.1911186 C-1.13248289 86.73408054 -1.13394642 79.27704499 -1.13629532 71.82000732 C-1.13909271 62.73904431 -1.13835635 53.65808995 -1.13301457 44.57712793 C-1.13037673 39.93913198 -1.12937389 35.30115047 -1.13266373 30.6631546 C-1.135625 26.42442997 -1.13403673 22.1857333 -1.12868617 17.94701123 C-1.12756126 16.40665695 -1.12815479 14.86630034 -1.13056196 13.32594752 C-1.13356521 11.24596057 -1.13052226 9.16607174 -1.12584114 7.08609009 C-1.12567879 5.92658655 -1.12551644 4.76708302 -1.12534916 3.57244301 C-1 1 -1 1 0 0 Z " fill="#3189D5" transform="translate(227,326)"/>
<path d="M0 0 C6.57529873 3.62694414 10.6532539 9.98540921 13 17 C12.67 17.66 12.34 18.32 12 19 C10.69675781 18.91298828 10.69675781 18.91298828 9.3671875 18.82421875 C1.95434281 18.23869201 1.95434281 18.23869201 -4.5625 21.125 C-6.98569683 23.9831296 -8.95964556 26.86659854 -11 30 C-11.66 30 -12.32 30 -13 30 C-14.7945781 28.09693355 -16.40401346 26.07459912 -18.05078125 24.04296875 C-21.14629165 20.79857609 -23.59535884 19.13218079 -28.11328125 18.70703125 C-29.69689453 18.75923828 -29.69689453 18.75923828 -31.3125 18.8125 C-32.38113281 18.83957031 -33.44976562 18.86664062 -34.55078125 18.89453125 C-35.35902344 18.92933594 -36.16726563 18.96414063 -37 19 C-35.71520218 16.13391256 -34.52465782 13.91850454 -32 12 C-26.1065886 10.96535635 -21.08246443 11.79002247 -16 15 C-16.103125 13.80375 -16.20625 12.6075 -16.3125 11.375 C-16.33070512 7.95850513 -15.81131276 6.19761597 -13.625 3.5625 C-9.43238281 -0.53029297 -5.71094947 -1.07650485 0 0 Z " fill="#FDD87D" transform="translate(535,577)"/>
<path d="M0 0 C0.99 0.66 1.98 1.32 3 2 C3 2.66 3 3.32 3 4 C2.13375 4.226875 1.2675 4.45375 0.375 4.6875 C-4.29215542 6.50250489 -7.75461522 8.90548924 -10.375 13.3125 C-10.684375 14.1478125 -10.684375 14.1478125 -11 15 C-13.87074828 14.04308391 -15.69872722 13.33355201 -17.75 11.0625 C-21.02320688 8.06206036 -24.7844112 7.18901223 -29 6 C-26.72097997 3.19505227 -25.65494791 2.08186849 -22 1.625 C-19.11213348 1.98598331 -17.54626836 2.72686582 -15 4 C-12.31174093 3.7398459 -10.89717608 2.93235268 -8.625 1.4375 C-5.46637228 -0.29222471 -3.5534063 -0.38623982 0 0 Z " fill="#C55A13" transform="translate(440,561)"/>
<path d="M0 0 C0.33 0.99 0.66 1.98 1 3 C0.21625 3.4125 -0.5675 3.825 -1.375 4.25 C-4.09197758 5.72009702 -4.09197758 5.72009702 -4.875 8 C-6.7379997 11.31199947 -9.50475543 11.87441277 -13 13 C-15.625 13.0625 -15.625 13.0625 -18 12 C-19.8486331 10.10850004 -21.37901278 8.10290234 -23 6 C-23.66 5.67 -24.32 5.34 -25 5 C-24.67 4.01 -24.34 3.02 -24 2 C-17.38181818 1.87272727 -17.38181818 1.87272727 -14.9375 2.6875 C-12.7715406 3.23268672 -12.7715406 3.23268672 -10.1875 1.5625 C-6.52385268 -0.23340555 -4.02699149 -0.24161949 0 0 Z " fill="#C96114" transform="translate(499,578)"/>
<path d="M0 0 C0.33 1.32 0.66 2.64 1 4 C0.07767578 4.07347656 0.07767578 4.07347656 -0.86328125 4.1484375 C-1.67152344 4.22320313 -2.47976563 4.29796875 -3.3125 4.375 C-4.11300781 4.44460938 -4.91351563 4.51421875 -5.73828125 4.5859375 C-8.27224441 4.89564426 -8.27224441 4.89564426 -11 7 C-11 6.34 -11 5.68 -11 5 C-15.455 5.495 -15.455 5.495 -20 6 C-20 4.68 -20 3.36 -20 2 C-13.48784758 -1.75701101 -7.16009245 -0.91977472 0 0 Z " fill="#D7650E" transform="translate(404,587)"/>
<path d="M0 0 C2.38671875 0.37109375 2.38671875 0.37109375 5.01171875 2.37109375 C5.69234375 3.36109375 5.69234375 3.36109375 6.38671875 4.37109375 C5.06671875 4.70109375 3.74671875 5.03109375 2.38671875 5.37109375 C2.38671875 6.03109375 2.38671875 6.69109375 2.38671875 7.37109375 C-2.56328125 7.37109375 -7.51328125 7.37109375 -12.61328125 7.37109375 C-9.26171118 0.6679536 -7.32056177 -0.18167818 0 0 Z " fill="#FEEBAD" transform="translate(510.61328125,588.62890625)"/>
<path d="M0 0 C0.33 0 0.66 0 1 0 C1 1.65 1 3.3 1 5 C1.58378418 4.99476318 2.16756836 4.98952637 2.76904297 4.98413086 C5.47101724 4.96305919 8.17297411 4.95024541 10.875 4.9375 C12.25171875 4.92493164 12.25171875 4.92493164 13.65625 4.91210938 C19.8335647 4.89035827 25.86721835 5.26069892 32 6 C32 6.33 32 6.66 32 7 C24.28847276 8.05648755 16.71334179 8.11624053 8.9375 8.0625 C7.69033203 8.05798828 6.44316406 8.05347656 5.15820312 8.04882812 C2.10541779 8.03713163 -0.94726498 8.02074086 -4 8 C-2.68 7.67 -1.36 7.34 0 7 C0 4.69 0 2.38 0 0 Z " fill="#D9B67C" transform="translate(679,636)"/>
<path d="M0 0 C4.95 0.99 4.95 0.99 10 2 C9.01 2.66 8.02 3.32 7 4 C7.66 5.32 8.32 6.64 9 8 C6.69 8 4.38 8 2 8 C2.33 6.35 2.66 4.7 3 3 C2.01 2.67 1.02 2.34 0 2 C0 1.34 0 0.68 0 0 Z " fill="#7CB12C" transform="translate(698,493)"/>
<path d="M0 0 C0.66 0.99 1.32 1.98 2 3 C1.29875 3.515625 0.5975 4.03125 -0.125 4.5625 C-3.49467357 7.41939716 -6.21156604 10.58871997 -9 14 C-9.66 13.67 -10.32 13.34 -11 13 C-10.06027344 11.96939453 -10.06027344 11.96939453 -9.1015625 10.91796875 C-8.28429687 10.01691406 -7.46703125 9.11585938 -6.625 8.1875 C-5.81289063 7.29417969 -5.00078125 6.40085937 -4.1640625 5.48046875 C-1.90927093 3.00367326 -1.90927093 3.00367326 0 0 Z " fill="#ECDCD7" transform="translate(379,469)"/>
<path d="M0 0 C1.29608947 0.93137592 2.58671632 1.8703566 3.875 2.8125 C4.59429688 3.33457031 5.31359375 3.85664062 6.0546875 4.39453125 C8 6 8 6 10 9 C8 8 6 7 4 6 C3.67 6.66 3.34 7.32 3 8 C0 3.375 0 3.375 0 0 Z " fill="#FEC928" transform="translate(541,547)"/>
<path d="M0 0 C0 3 0 3 -1.3125 4.38671875 C-2.875 5.59114583 -4.4375 6.79557292 -6 8 C-6.33 6.68 -6.66 5.36 -7 4 C-4.69 2.68 -2.38 1.36 0 0 Z " fill="#E8F3FB" transform="translate(390,324)"/>
<path d="M0 0 C2.2477975 2.05233685 3.0022242 3.00667261 4 6 C3.01 6.495 3.01 6.495 2 7 C1.34 7.99 0.68 8.98 0 10 C-0.74926071 6.33694766 -1.2380014 3.57644848 0 0 Z " fill="#0753A6" transform="translate(256,667)"/>
<path d="M0 0 C4.51617599 -0.07654536 8.59085217 -0.10228696 13 1 C11.625 2.5 11.625 2.5 10 4 C9.34 4 8.68 4 8 4 C7.67 3.34 7.34 2.68 7 2 C4.67843403 1.59270772 2.3431213 1.25561323 0 1 C0 0.67 0 0.34 0 0 Z " fill="#19A9F9" transform="translate(457,703)"/>
<path d="M0 0 C2.475 0.495 2.475 0.495 5 1 C4.690625 1.598125 4.38125 2.19625 4.0625 2.8125 C2.89790296 5.08956772 2.89790296 5.08956772 2 8 C0.74335022 5.09399739 0 3.20395416 0 0 Z " fill="#743611" transform="translate(641,493)"/>
<path d="M0 0 C1.32 0 2.64 0 4 0 C4 0.66 4 1.32 4 2 C4.99 2.33 5.98 2.66 7 3 C3.7 3.33 0.4 3.66 -3 4 C-2.01 2.68 -1.02 1.36 0 0 Z " fill="#669D1C" transform="translate(544,468)"/>
</svg>
